{
  "source": "C:\\Users\\Peter\\Desktop\\stuff\\MIUN\\quantitative_research\\video_compression\\videos\\BVI-HD\\BridgeRiver_1920x1080_30fps.mp4",
  "output": "C:\\Users\\Peter\\Desktop\\stuff\\MIUN\\quantitative_research\\video_compression\\compressed_videos\\BVI-HD\\av1\\12\\BridgeRiver_1920x1080_30fps_av1.mkv",
  "codec": "av1",
  "ok": "Input #0, mov,mp4,m4a,3gp,3g2,mj2, from 'C:\\Users\\Peter\\Desktop\\stuff\\MIUN\\quantitative_research\\video_compression\\videos\\BVI-HD\\BridgeRiver_1920x1080_30fps.mp4':\n  Metadata:\n    major_brand     : isom\n    minor_version   : 512\n    compatible_brands: isomiso2avc1mp41\n    encoder         : Lavf54.28.101\n  Duration: 00:00:05.00, start: 0.000000, bitrate: 274913 kb/s\n  Stream #0:0[0x1](und): Video: h264 (High 4:4:4 Predictive) (avc1 / 0x31637661), yuv420p(progressive), 1920x1080, 274910 kb/s, 30 fps, 30 tbr, 30 tbn (default)\n    Metadata:\n      handler_name    : VideoHandler\n      vendor_id       : [0][0][0][0]\n[out#0/matroska @ 0000020ddc2b9340] Codec AVOption b:a (set bitrate (in bits/s)) has not been used for any stream. The most likely reason is either wrong type (e.g. a video option with no video streams) or that it is a private option of some decoder which was not actually used for any stream.\nStream mapping:\n  Stream #0:0 -> #0:0 (h264 (native) -> av1 (libsvtav1))\nPress [q] to stop, [?] for help\nSvt[info]: -------------------------------------------\nSvt[info]: SVT [version]:\tSVT-AV1 Encoder Lib v3.1.0-19-g6ecfe8ec\nSvt[info]: SVT [build]  :\tGCC 15.2.0\t 64 bit\nSvt[info]: LIB Build date: Aug 17 2025 11:37:13\nSvt[info]: -------------------------------------------\nSvt[info]: Level of Parallelism: 5\nSvt[info]: Number of PPCS 93\nSvt[info]: [asm level on system : up to avx2]\nSvt[info]: [asm level selected : up to avx2]\nSvt[info]: -------------------------------------------\nSvt[info]: SVT [config]: main profile\ttier (auto)\tlevel (auto)\nSvt[info]: SVT [config]: width / height / fps numerator / fps denominator \t\t: 1920 / 1080 / 30 / 1\nSvt[info]: SVT [config]: bit-depth / color format \t\t\t\t\t: 8 / YUV420\nSvt[info]: SVT [config]: preset / tune / pred struct \t\t\t\t\t: 4 / PSNR / random access\nSvt[info]: SVT [config]: gop size / mini-gop size / key-frame type \t\t\t: 161 / 16 / key frame\nSvt[info]: SVT [config]: BRC mode / target bitrate (kbps)\t\t\t\t: VBR / 12000 \nSvt[info]: SVT [config]: AQ mode / Variance Boost \t\t\t\t\t: 2 / 0\nSvt[info]: SVT [config]: sharpness / luminance-based QP bias \t\t\t\t: 0 / 0\nSvt[info]: SVT [config]: QP scale compress strength \t\t\t\t\t: 0\nSvt[info]: -------------------------------------------\nOutput #0, matroska, to 'C:\\Users\\Peter\\Desktop\\stuff\\MIUN\\quantitative_research\\video_compression\\compressed_videos\\BVI-HD\\av1\\12\\BridgeRiver_1920x1080_30fps_av1.mkv':\n  Metadata:\n    major_brand     : isom\n    minor_version   : 512\n    compatible_brands: isomiso2avc1mp41\n    encoder         : Lavf62.3.100\n  Stream #0:0(und): Video: av1 (AV01 / 0x31305641), yuv420p(tv, progressive), 1920x1080, q=2-31, 12000 kb/s, 30 fps, 1k tbn (default)\n    Metadata:\n      encoder         : Lavc62.11.100 libsvtav1\n      handler_name    : VideoHandler\n      vendor_id       : [0][0][0][0]\n    Side data:\n      cpb: bitrate max/min/avg: 0/0/12000000 buffer size: 12000000 vbv_delay: N/A\nframe=    0 fps=0.0 q=0.0 size=       0KiB time=N/A bitrate=N/A speed=N/A elapsed=0:00:01.85    \nframe=    0 fps=0.0 q=0.0 size=       0KiB time=N/A bitrate=N/A speed=N/A elapsed=0:00:02.56    \nframe=    0 fps=0.0 q=0.0 size=       0KiB time=N/A bitrate=N/A speed=N/A elapsed=0:00:03.25    \nframe=    0 fps=0.0 q=0.0 size=       0KiB time=N/A bitrate=N/A speed=N/A elapsed=0:00:03.92    \nframe=    0 fps=0.0 q=0.0 size=       0KiB time=N/A bitrate=N/A speed=N/A elapsed=0:00:04.45    \nframe=    0 fps=0.0 q=0.0 size=       0KiB time=N/A bitrate=N/A speed=N/A elapsed=0:00:05.09    \nframe=    0 fps=0.0 q=0.0 size=       0KiB time=N/A bitrate=N/A speed=N/A elapsed=0:00:05.63    \nframe=    0 fps=0.0 q=0.0 size=       0KiB time=N/A bitrate=N/A speed=N/A elapsed=0:00:06.15    \nframe=    0 fps=0.0 q=0.0 size=       0KiB time=N/A bitrate=N/A speed=N/A elapsed=0:00:06.68    \nframe=    0 fps=0.0 q=0.0 size=       0KiB time=N/A bitrate=N/A speed=N/A elapsed=0:00:07.20    \nframe=    0 fps=0.0 q=0.0 size=       0KiB time=N/A bitrate=N/A speed=N/A elapsed=0:00:07.72    \nframe=    1 fps=0.1 q=9.0 size=       1KiB time=00:00:00.00 bitrate=N/A speed=   0x elapsed=0:00:08.30    \nframe=    1 fps=0.1 q=9.0 size=       1KiB time=00:00:00.00 bitrate=N/A speed=   0x elapsed=0:00:08.92    \nframe=    1 fps=0.1 q=9.0 size=       1KiB time=00:00:00.00 bitrate=N/A speed=   0x elapsed=0:00:09.56    \nframe=    2 fps=0.2 q=31.0 size=       1KiB time=00:00:00.00 bitrate=N/A speed=   0x elapsed=0:00:10.31    \nframe=    5 fps=0.5 q=28.0 size=       1KiB time=00:00:00.10 bitrate=  57.0kbits/s speed=0.00911x elapsed=0:00:10.97    \nframe=    7 fps=0.6 q=28.0 size=       1KiB time=00:00:00.20 bitrate=  28.5kbits/s speed=0.0171x elapsed=0:00:11.70    \nframe=    8 fps=0.7 q=31.0 size=       1KiB time=00:00:00.23 bitrate=  24.4kbits/s speed=0.019x elapsed=0:00:12.26    \nframe=   10 fps=0.8 q=31.0 size=       1KiB time=00:00:00.26 bitrate=  21.4kbits/s speed=0.0204x elapsed=0:00:13.09    \nframe=   11 fps=0.8 q=26.0 size=       1KiB time=00:00:00.33 bitrate=  17.1kbits/s speed=0.0242x elapsed=0:00:13.75    \nframe=   13 fps=0.9 q=25.0 size=       1KiB time=00:00:00.40 bitrate=  14.3kbits/s speed=0.0279x elapsed=0:00:14.32    \nframe=   16 fps=1.1 q=31.0 size=       1KiB time=00:00:00.50 bitrate=  11.4kbits/s speed=0.0336x elapsed=0:00:14.87    \nframe=   18 fps=1.2 q=31.0 size=       1KiB time=00:00:00.56 bitrate=  10.1kbits/s speed=0.0366x elapsed=0:00:15.47    \nframe=   20 fps=1.2 q=31.0 size=       1KiB time=00:00:00.63 bitrate=   9.0kbits/s speed=0.0395x elapsed=0:00:16.03    \nframe=   23 fps=1.4 q=26.0 size=       1KiB time=00:00:00.73 bitrate=   7.8kbits/s speed=0.0442x elapsed=0:00:16.60    \nframe=   26 fps=1.5 q=31.0 size=       1KiB time=00:00:00.83 bitrate=   6.8kbits/s speed=0.0483x elapsed=0:00:17.24    \nframe=   28 fps=1.6 q=31.0 size=       1KiB time=00:00:00.90 bitrate=   6.3kbits/s speed=0.0503x elapsed=0:00:17.87    \nframe=   33 fps=1.8 q=18.0 size=       1KiB time=00:00:01.03 bitrate=   5.5kbits/s speed=0.0561x elapsed=0:00:18.42    \nframe=   35 fps=1.8 q=29.0 size=       1KiB time=00:00:01.13 bitrate=   5.0kbits/s speed=0.0595x elapsed=0:00:19.03    \nframe=   38 fps=1.9 q=31.0 size=       1KiB time=00:00:01.23 bitrate=   4.6kbits/s speed=0.0629x elapsed=0:00:19.61    \nframe=   40 fps=2.0 q=31.0 size=       1KiB time=00:00:01.26 bitrate=   4.5kbits/s speed=0.0625x elapsed=0:00:20.27    \nframe=   42 fps=2.0 q=31.0 size=       1KiB time=00:00:01.36 bitrate=   4.2kbits/s speed=0.0654x elapsed=0:00:20.88    \nframe=   44 fps=2.1 q=31.0 size=       1KiB time=00:00:01.43 bitrate=   4.0kbits/s speed=0.0669x elapsed=0:00:21.43    \nframe=   48 fps=2.2 q=31.0 size=       1KiB time=00:00:01.56 bitrate=   3.6kbits/s speed=0.0708x elapsed=0:00:22.13    \nframe=   51 fps=2.2 q=30.0 size=       1KiB time=00:00:01.66 bitrate=   3.4kbits/s speed=0.0735x elapsed=0:00:22.68    \nframe=   57 fps=2.4 q=24.0 size=       1KiB time=00:00:01.86 bitrate=   3.1kbits/s speed=0.0801x elapsed=0:00:23.29    \nframe=   57 fps=2.4 q=24.0 size=       1KiB time=00:00:01.86 bitrate=   3.1kbits/s speed=0.0781x elapsed=0:00:23.91    \nframe=   61 fps=2.5 q=25.0 size=       1KiB time=00:00:02.00 bitrate=   2.9kbits/s speed=0.0815x elapsed=0:00:24.53    \nframe=   65 fps=2.6 q=16.0 size=       1KiB time=00:00:02.13 bitrate=   2.7kbits/s speed=0.0846x elapsed=0:00:25.21    \nframe=   69 fps=2.7 q=29.0 size=       1KiB time=00:00:02.26 bitrate=   2.5kbits/s speed=0.0879x elapsed=0:00:25.78    \nframe=   73 fps=2.8 q=25.0 size=    5120KiB time=00:00:02.40 bitrate=17476.3kbits/s speed=0.0912x elapsed=0:00:26.32    \nframe=   77 fps=2.9 q=27.0 size=    5120KiB time=00:00:02.53 bitrate=16556.5kbits/s speed=0.0942x elapsed=0:00:26.88    \nframe=   81 fps=3.0 q=18.0 size=    5120KiB time=00:00:02.66 bitrate=15728.6kbits/s speed=0.0973x elapsed=0:00:27.40    \nframe=   85 fps=3.0 q=32.0 size=    5120KiB time=00:00:02.80 bitrate=14979.7kbits/s speed= 0.1x elapsed=0:00:27.93    \nframe=   89 fps=3.1 q=27.0 size=    5120KiB time=00:00:02.93 bitrate=14298.8kbits/s speed=0.103x elapsed=0:00:28.51    \nframe=   93 fps=3.2 q=30.0 size=    5120KiB time=00:00:03.06 bitrate=13677.1kbits/s speed=0.106x elapsed=0:00:29.06    \nframe=   97 fps=3.3 q=21.0 size=    5120KiB time=00:00:03.20 bitrate=13107.2kbits/s speed=0.108x elapsed=0:00:29.68    \nframe=  103 fps=3.4 q=36.0 size=    5120KiB time=00:00:03.40 bitrate=12336.2kbits/s speed=0.112x elapsed=0:00:30.27    \nframe=  105 fps=3.4 q=30.0 size=    5120KiB time=00:00:03.46 bitrate=12099.0kbits/s speed=0.112x elapsed=0:00:30.82    \nframe=  109 fps=3.5 q=31.0 size=    5120KiB time=00:00:03.60 bitrate=11650.8kbits/s speed=0.114x elapsed=0:00:31.46    \nframe=  113 fps=3.5 q=24.0 size=    5120KiB time=00:00:03.73 bitrate=11234.7kbits/s speed=0.117x elapsed=0:00:32.03    \nframe=  117 fps=3.6 q=34.0 size=    5120KiB time=00:00:03.86 bitrate=10847.3kbits/s speed=0.119x elapsed=0:00:32.55    \nframe=  121 fps=3.7 q=31.0 size=    5120KiB time=00:00:04.00 bitrate=10485.8kbits/s speed=0.121x elapsed=0:00:33.08    \nframe=  125 fps=3.7 q=34.0 size=    5120KiB time=00:00:04.13 bitrate=10147.5kbits/s speed=0.123x elapsed=0:00:33.61    \nframe=  129 fps=3.8 q=25.0 size=    5120KiB time=00:00:04.26 bitrate=9830.4kbits/s speed=0.125x elapsed=0:00:34.16    \nframe=  133 fps=3.8 q=37.0 size=    5120KiB time=00:00:04.40 bitrate=9532.5kbits/s speed=0.127x elapsed=0:00:34.68    \nframe=  137 fps=3.9 q=34.0 size=    5120KiB time=00:00:04.53 bitrate=9252.1kbits/s speed=0.129x elapsed=0:00:35.24    \nframe=  139 fps=3.9 q=37.0 size=    5120KiB time=00:00:04.60 bitrate=9118.1kbits/s speed=0.128x elapsed=0:00:35.80    \nframe=  143 fps=3.9 q=37.0 size=    5120KiB time=00:00:04.73 bitrate=8861.2kbits/s speed=0.13x elapsed=0:00:36.34    \n[out#0/matroska @ 0000020ddc2b9340] video:8678KiB audio:0KiB subtitle:0KiB other streams:0KiB global headers:0KiB muxing overhead: 0.017194%\nframe=  150 fps=4.1 q=37.0 Lsize=    8680KiB time=00:00:04.96 bitrate=14316.5kbits/s speed=0.137x elapsed=0:00:36.37    \n",
  "seconds": 37.679864168167114,
  "probe_out": {}
}